<svg xmlns="http://www.w3.org/2000/svg" width="460.612" height="403.301" viewBox="0 0 460.612 403.301">
  <g id="Group_6" data-name="Group 6" transform="translate(-1182 -202.057)">
    <g id="Layer_2" data-name="Layer 2" transform="translate(1182 202.057)">
      <g id="Слой_1" data-name="Слой 1" transform="translate(0 0)">
        <g id="_3" data-name="3">
          <g id="CHAIR" transform="translate(9.545 252.365)">
            <path id="Path_205" data-name="Path 205" d="M77.868,849.77v51.3L28.82,979.7" transform="translate(-28.82 -832.306)" fill="none" stroke="#6562cf" stroke-miterlimit="10" stroke-width="6"/>
            <path id="Path_206" data-name="Path 206" d="M232.82,849.77v51.3L281.868,979.7" transform="translate(-165.259 -832.306)" fill="none" stroke="#6562cf" stroke-miterlimit="10" stroke-width="6"/>
            <rect id="Rectangle_1095" data-name="Rectangle 1095" width="106.418" height="17.464" rx="8.732" transform="translate(5.097)" fill="#fff" stroke="#ffb000" stroke-miterlimit="10" stroke-width="5"/>
            <line id="Line_1" data-name="Line 1" y2="129.239" transform="translate(58.304 18.28)" fill="none" stroke="#6562cf" stroke-miterlimit="10" stroke-width="6"/>
          </g>
          <g id="WOMAN">
            <g id="RIGHT_HAND" data-name="RIGHT HAND" transform="translate(93.694 128.108)">
              <path id="Path_207" data-name="Path 207" d="M310.095,403.45s-1.851,17.391-.48,17.487c16.983,1.169,36.536,3.175,39.556,4.223,4.12,1.178,16.105,4.566,17.761,6.033,2.09,1.854,3.11,7.938,3.11,8.688s-1,4.706-1,4.706a2.823,2.823,0,0,1-2.921-2.934c-.056-3.563-3.477-4.261-5.792-4.922-.967-.276-3.312.181-3.55,1.556s3.438,2.54,4.127,3.442a3.32,3.32,0,0,1,.268,3.137l-6.726-2.445c-.994-.359-6.047-4.719-8.495-8.808,0,0-47.855,14.222-59.755,7.065-4.5-2.7-3.643-11.358-1.812-24.644Z" transform="translate(-282.907 -403.45)" fill="#b65a18"/>
            </g>
            <path id="SKIRT" d="M78.961,644c46.11.051,51.7.429,77.794-.686,0,0-1.408-12.485,2.749-22.465,12.221-29.34,27.9-24.1,27.9-24.1-11.489-6.281-26.912-11.981-62.358-14.057-3.494-8.764-3.809-16.007-4.478-22.469L61.9,560.14s-7.889,13.689-15.678,41.336C38.657,628.33,60.465,643.985,78.961,644Z" transform="translate(-29.883 -382.277)" fill="#3f4d79"/>
            <g id="LEGS" transform="translate(100.159 213.931)">
              <g id="LOWER_LEG" data-name="LOWER LEG" transform="translate(31.764 32.399)">
                <path id="LEG" d="M439.013,801.727c2.037-10.561-.354-28.346-16.976-25.7s-13.684,12.828-13.668,19.573c.046,19.411-6.819,29.213-9.064,45.915-3.1,23.069,1.888,50.926,6.369,69.3l-3.673,7.8s6.382,5.716,21.106,6.668,4.232-5.217,4.232-5.217c-7.2-6.8-11.148-11.692-9.293-24.622C419.374,886.182,435.88,817.982,439.013,801.727Z" transform="translate(-398.341 -775.764)" fill="#b65a18"/>
                <path id="SHOE" d="M408.185,1214.412s-7.548,14.133,1.987,14.159c4.077,0,35.767-.089,35.767-.089s1.235-7.256-9.22-8.608c-1.454-.187-4.779-.635-4.779-.635s3.838,4.423-4.726,3.7C412.891,1221.719,412.752,1212.961,408.185,1214.412Z" transform="translate(-403.029 -1075.017)" fill="#3f4d79"/>
              </g>
              <g id="UPPER_LEG" data-name="UPPER LEG">
                <path id="LEG-2" data-name="LEG" d="M364.069,675.292c15.178-7.011,17.1,11.349,14.744,19.916-.964,3.54-11.1,31.636-14.208,41.133s-26.518,65.151-28.922,98.188c-.026.359-3.53,8.91-11.975-15.658-3.133-9.123,5.233-8.1,4.759-12.114-2.285-19.319-5.58-60.347-.921-82.559C329.428,715.231,341.549,685.691,364.069,675.292Z" transform="translate(-316.19 -673.729)" fill="#c36f0b"/>
                <path id="SHOE-2" data-name="SHOE" d="M314.454,1096.36s-15.811,1.426-11.174,9.412c1.987,3.41,18.92,31.541,18.92,31.541s6.537-2.54,2.649-11.927c-.543-1.308-2.57-5.992-2.57-5.992s-2.318,5.252-5.534-2.388C311.848,1105.413,317.65,1102.6,314.454,1096.36Z" transform="translate(-302.429 -962.161)" fill="#3f4d79"/>
              </g>
            </g>
            <path id="BLOUSE" d="M96.908,338.772a310.879,310.879,0,0,1,10.982-40.263s2.51-1.207,19.563-9.526c0,0,.411-23.323-12.224-34.392-8.342-7.3-25.428-12.7-25.428-12.7l-32.84-1.68c-6.332.359-22.219,2.2-36.393,12.943C6.556,263.771.24,275.8.24,275.8s18.546,4.172,32.045,19.541L22.84,338.772s10.926,5.839,36.32,6.475C90.178,346.009,96.908,338.772,96.908,338.772Z" transform="translate(-0.16 -163.936)" fill="#dbdaff"/>
            <g id="LEFT_HAND" data-name="LEFT HAND" transform="translate(0 114.877)">
              <path id="Path_208" data-name="Path 208" d="M112.368,396.928c-.1,3.674-9.6.886-9.667,2.305a1.761,1.761,0,0,0,.331,1.4,2.1,2.1,0,0,1,.116,2.49c-.815,1.518,1.9,1.905,1.076,4.353s.45,2.137.609,4.652c.176,2.842-12.3,5.309-16.029,3.925a2.6,2.6,0,0,1-.96-.654c-5.2.178-80.053,2.566-85.971-5.6-6.8-9.364,7.067-48.017,7.067-48.017,13.207,4.693,24.2,16.531,24.2,16.531l-3.4,13.67c20.692,1.029,43.808,7.621,55.7,11.431a19.628,19.628,0,0,1,.994-4.944c.295-1.172,1.716-3.433,6.68-3.55S112.425,395.01,112.368,396.928Z" transform="translate(0.002 -361.78)" fill="#c36f0b"/>
              <path id="Path_209" data-name="Path 209" d="M21.369,361.78s12.78,3.436,24.2,16.528l-1.262,5.135s-11.042-9.605-25.729-12.574Z" transform="translate(-12.426 -361.78)" fill="#b65a18"/>
            </g>
            <g id="HEAD" transform="translate(21.454)">
              <path id="HAIR" d="M166.962,39.6c-2.206,4.877-.51,6.506-.172,7.967.331,1.41.063,9.688-12.068,9.5a4.946,4.946,0,0,0-.97,4.6,4.167,4.167,0,0,0,5.11,2.724,3.03,3.03,0,0,0,2.179-3.744,2.325,2.325,0,0,0-1.146-1.388,2.5,2.5,0,0,0-1.835-.2,1.716,1.716,0,0,0-1.232,2.124,1.255,1.255,0,0,0,.619.75,1.348,1.348,0,0,0,.991.108.667.667,0,0,1,.82.437.632.632,0,0,1-.455.786,2.647,2.647,0,0,1-3.246-1.731,2.879,2.879,0,0,1,.272-2.274,3.1,3.1,0,0,1,1.871-1.422,3.757,3.757,0,0,1,4.61,2.461,4.29,4.29,0,0,1-3.07,5.315,5.788,5.788,0,0,1-1.5.2,5.425,5.425,0,0,1-5.239-3.81,6.124,6.124,0,0,1,.686-5.011c-13.661-.8-53.038,19.268-53.038,19.268S91.665,78.619,89.118,73.4c0,0-13.4.67-16.112-7.3a9.662,9.662,0,0,1-.06-7.176,5.776,5.776,0,0,1-2.384.7h-.331a5.369,5.369,0,0,1-5.445-4.912,4.386,4.386,0,0,1,4.236-4.541A3.686,3.686,0,0,1,72.96,53.54a3.04,3.04,0,0,1-2.934,3.153,2.589,2.589,0,0,1-2.772-2.369.646.646,0,0,1,.624-.672.654.654,0,0,1,.7.6,1.283,1.283,0,0,0,1.374,1.175,1.749,1.749,0,0,0,1.689-1.813,2.27,2.27,0,0,0-.8-1.592,2.469,2.469,0,0,0-1.742-.58,3.22,3.22,0,0,0-2.185,1.012,2.959,2.959,0,0,0-.8,2.2,4.075,4.075,0,0,0,4.365,3.721c1.9-.1,3.934-1.819,5-3.833-1.606-1.924-5.1-6.91-3.673-12.339,1.692-6.449,8.313-7.729,8.313-7.729s-5.961-12.019,5.3-17.8a16.589,16.589,0,0,1,8.048-2.013,5.824,5.824,0,0,1-.732-.921,3.3,3.3,0,0,1,.977-4.525,2.786,2.786,0,0,1,3.862.826,2.336,2.336,0,0,1-.7,3.21.681.681,0,0,1-.921-.168.619.619,0,0,1,.176-.883,1.086,1.086,0,0,0,.311-1.492,1.44,1.44,0,0,0-.927-.635,1.422,1.422,0,0,0-1.06.2,2.048,2.048,0,0,0-.593,2.82,3.7,3.7,0,0,0,4.461,1.619h0a8.075,8.075,0,0,1,.543-3.41,5.4,5.4,0,0,1,1.421-1.985,6.012,6.012,0,0,1,2.689-1.289,12.492,12.492,0,0,1,4.368-.064,7.281,7.281,0,0,1,5.09-5.528c7-2.432,13.578,2.039,13.578,2.039S132.043-2.279,140.693.81c7.5,2.683,8.352,7.764,8.448,9.053a4.861,4.861,0,0,0,3.077-.8,3.4,3.4,0,0,0,1.1-4.445A2.231,2.231,0,0,0,150.552,3.5a1.316,1.316,0,0,0-.732,1.826,1.178,1.178,0,0,0,1.47.587.673.673,0,0,1,.861.356.627.627,0,0,1-.371.826,2.523,2.523,0,0,1-3.219-3.344,2.631,2.631,0,0,1,1.507-1.432,3.585,3.585,0,0,1,4.464,1.765,4.591,4.591,0,0,1-1.53,6c-.079.057-.162.111-.248.165a5.835,5.835,0,0,1,3.358,1.372c1.865,1.953,0,4.553,0,4.553s4.663.813,6.147,4.23-.891,5.2,1.825,7.643S169.174,34.72,166.962,39.6Z" transform="translate(-64.78 -0.001)" fill="#3f4d79"/>
              <path id="HOOP" d="M235.27,121.125s.089-24.409,20.275-24.082,11.74,26.193,11.74,26.193Z" transform="translate(-178.807 -66.227)" fill="#fff"/>
              <g id="NECK" transform="translate(35.347 54.085)">
                <path id="Path_210" data-name="Path 210" d="M192.643,170.33s-3.958,12.133-21.133,22.186c0,0,19.344,8.049,35.105,2.2Z" transform="translate(-171.51 -170.33)" fill="#c36f0b"/>
                <path id="Path_211" data-name="Path 211" d="M244.521,194.976a36.118,36.118,0,0,1-11.174,2.1c-8.571-7.16-4.173-23.164-3.087-25.669.079-.184.2-.416.331-.689Z" transform="translate(-209.403 -170.596)" fill="#b65a18"/>
              </g>
              <path id="HEAD-2" data-name="HEAD" d="M234.943,143.685c-1.341,3.093,5.855,23.57,14,23.57,9.495,0,27.389-28.629,13.986-35.459S236.218,140.732,234.943,143.685Z" transform="translate(-178.48 -88.787)" fill="#c36f0b"/>
            </g>
          </g>
          <g id="TABLET" transform="translate(58.593 115.188)">
            <g id="TABLE" transform="translate(0 54.006)">
              <path id="Path_212" data-name="Path 212" d="M181.275,532.84H337.006v8.348H181.275a4.268,4.268,0,0,1-4.355-4.169h0a4.268,4.268,0,0,1,4.355-4.176Z" transform="translate(-176.92 -532.84)" fill="#fff"/>
              <path id="Path_213" data-name="Path 213" d="M337.006,541.2H181.275a4.268,4.268,0,0,1-4.355-4.172h0a4.268,4.268,0,0,1,4.355-4.176H337.006" transform="translate(-176.92 -532.847)" fill="none" stroke="#ffb000" stroke-miterlimit="10" stroke-width="5"/>
            </g>
            <g id="TABLET-2" data-name="TABLET" transform="translate(31.365)">
              <path id="Path_214" data-name="Path 214" d="M349.092,416.5H274.026A2.424,2.424,0,0,1,272,415.428a2.217,2.217,0,0,1-.138-2.216l23.1-46.7a6.874,6.874,0,0,1,6.193-3.756h75.065a2.424,2.424,0,0,1,2.037,1.07,2.217,2.217,0,0,1,.136,2.223l-23.106,46.7A6.888,6.888,0,0,1,349.092,416.5Z" transform="translate(-271.628 -362.76)" fill="none" stroke="#000" stroke-miterlimit="10" stroke-width="1"/>
              <path id="Path_215" data-name="Path 215" d="M349.862,416.5H274.8a2.424,2.424,0,0,1-2.028-1.071,2.217,2.217,0,0,1-.138-2.216l23.1-46.7a6.884,6.884,0,0,1,6.193-3.756h75.065a2.424,2.424,0,0,1,2.028,1.071,2.217,2.217,0,0,1,.138,2.216l-23.1,46.7A6.881,6.881,0,0,1,349.862,416.5Z" transform="translate(-272.143 -362.76)" fill="#eaeeff" stroke="#6562cf" stroke-miterlimit="10" stroke-width="6"/>
              <path id="Path_216" data-name="Path 216" d="M281.59,422.026l22.636-45.766a6.748,6.748,0,0,1,6.071-3.68h69.922a2.376,2.376,0,0,1,1.987,1.05,2.174,2.174,0,0,1,.135,2.173L360.878,419.21A4.342,4.342,0,0,1,357,421.582Z" transform="translate(-278.291 -369.462)" fill="#fff"/>
              <path id="Path_217" data-name="Path 217" d="M387.61,448.65v25.292h15.337Z" transform="translate(-349.199 -421.377)" fill="#eaeeff"/>
              <path id="Path_218" data-name="Path 218" d="M446.178,477.258H406.8L391.46,451.97h39.381Z" transform="translate(-351.774 -423.643)" fill="none" stroke="#000" stroke-miterlimit="10" stroke-width="1"/>
              <path id="Path_219" data-name="Path 219" d="M443.946,477.258H407.377L392.04,451.97h36.569Z" transform="translate(-352.162 -423.643)" fill="#c7bfff"/>
              <path id="Path_220" data-name="Path 220" d="M454.946,477.258H418.377L403.04,451.97h36.569Z" transform="translate(-359.519 -423.643)" fill="#fff"/>
              <path id="Path_221" data-name="Path 221" d="M446.178,477.668H406.8L391.46,452.38h39.381Z" transform="translate(-351.774 -423.923)" fill="none" stroke="#6562cf" stroke-miterlimit="10" stroke-width="6"/>
            </g>
          </g>
        </g>
      </g>
    </g>
    <g id="Layer_2-2" data-name="Layer 2" transform="translate(1416.878 202.057)">
      <g id="Слой_1-2" data-name="Слой 1" transform="translate(0 0)">
        <g id="_2" data-name="2" transform="translate(0)">
          <g id="COMPUTER" transform="translate(0 7.379)">
            <path id="Path_222" data-name="Path 222" d="M48.88,577.25h101.8a1.51,1.51,0,0,1,1.334,1.639v9.642a1.51,1.51,0,0,1-1.334,1.639H97.714V613.4" transform="translate(-36.8 -399.841)" fill="none" stroke="#ffb000" stroke-miterlimit="10" stroke-width="5"/>
            <path id="Path_223" data-name="Path 223" d="M79.335,35.25,74.269,80.857A72.246,72.246,0,0,0,78.4,114.332l7.4,19.4c4.92,12.888,13.414,22.956,23.814,28.228l22.358,11.335Z" transform="translate(-55.243 -31.345)" fill="#fff" stroke="#ffb000" stroke-miterlimit="10" stroke-width="5"/>
            <path id="Path_224" data-name="Path 224" d="M43.466,393.149H13.1c-6.9,0-11.958-8.323-10.275-16.918l14.065-58.5c1.3-6.665,5.975-11.335,11.33-11.335" transform="translate(-2.501 -215.695)" fill="none" stroke="#ffb000" stroke-miterlimit="10" stroke-width="5"/>
            <path id="Path_225" data-name="Path 225" d="M148,167.57h0a1.532,1.532,0,0,1-1.365-1.092L93.035,25.857c-.495-1.3.242-2.807,1.365-2.807h0a1.535,1.535,0,0,1,1.375,1.092l53.592,140.621C149.862,166.059,149.125,167.57,148,167.57Z" transform="translate(-69.339 -23.05)" fill="#fff" stroke="#ffb000" stroke-miterlimit="10" stroke-width="5"/>
            <ellipse id="Ellipse_6" data-name="Ellipse 6" cx="3.92" cy="4.818" rx="3.92" ry="4.818" transform="translate(41.285 166.996)" fill="none" stroke="#ffb000" stroke-miterlimit="10" stroke-width="5"/>
            <path id="Path_226" data-name="Path 226" d="M161.054,550.137c-.07-2.939,1.505-5.378,3.907-5.464l.38-.016a9.839,9.839,0,0,1,3.032.368l31.716,9.021" transform="translate(-119.755 -377.677)" fill="none" stroke="#ffb000" stroke-miterlimit="10" stroke-width="5"/>
          </g>
          <g id="CHAIR-2" data-name="CHAIR" transform="translate(91.385 136.242)">
            <path id="Path_227" data-name="Path 227" d="M485.268,425.6,460.089,539.626c-2.624,11.9-11.411,20.166-21.444,20.167H353.36" transform="translate(-353.36 -425.6)" fill="none" stroke="#ffb000" stroke-miterlimit="10" stroke-width="5"/>
            <line id="Line_2" data-name="Line 2" x2="68.746" y2="128.182" transform="translate(6.894 134.181)" fill="none" stroke="#ffb000" stroke-linecap="round" stroke-miterlimit="10" stroke-width="5"/>
            <line id="Line_3" data-name="Line 3" x1="74.997" y2="129.462" transform="translate(7.155 134.181)" fill="none" stroke="#ffb000" stroke-linecap="round" stroke-miterlimit="10" stroke-width="5"/>
          </g>
          <g id="MAN" transform="translate(45.539)">
            <g id="LEG-3" data-name="LEG" transform="translate(0 206.953)">
              <path id="LEG-4" data-name="LEG" d="M344.464,1094.831s-3.576,6.722-9.785,5.781l-4.2-7.385a64.086,64.086,0,0,0,12.664-4.847C343.571,1090.835,344.016,1093.086,344.464,1094.831Z" transform="translate(-290.594 -946.923)" fill="#ffcfc9"/>
              <path id="PANTS" d="M319.725,677.145c-2.516,6.924-10.9,24.915-30.177,25.661-23.9.925-67.871-1.847-67.871-1.847S231.734,749.8,231.95,786.8a61.875,61.875,0,0,1-19.691,7.113s-42.195-97-33.816-120.71c6.235-17.642,53.629-24.5,75.052-26.717C262.4,652.835,292.02,672.717,319.725,677.145Z" transform="translate(-177.343 -646.49)" fill="#52509d"/>
              <g id="SHOE-3" data-name="SHOE" transform="translate(29.272 147.907)">
                <path id="Path_228" data-name="Path 228" d="M315.025,1108.53a99.819,99.819,0,0,0,9.14,10.532c3.037,2.952,1.844,8.643-.742,13.426a174.746,174.746,0,0,1-12.914,20.369s-6.728.874-19.821.214c0,0-.49-5.711,4.139-8.291,10.549-5.881,12.924-21.448,10.418-30.453C305.24,1114.311,310.509,1115.467,315.025,1108.53Z" transform="translate(-290.427 -1108.53)" fill="#3f4d79"/>
                <path id="Path_229" data-name="Path 229" d="M325.533,1146.64c1.261,3.288-.615,8.23-2.547,11.758,0,0-7.184,12.309-12.653,20.673l-20.6.215" transform="translate(-289.73 -1134.44)" fill="none" stroke="#ffb000" stroke-linecap="round" stroke-miterlimit="10" stroke-width="7"/>
                <path id="Path_230" data-name="Path 230" d="M334.215,1195.249s-4.753-3.822-1.3-6.159" transform="translate(-320.736 -1163.301)" fill="none" stroke="#ffb000" stroke-linecap="round" stroke-miterlimit="10" stroke-width="5"/>
                <path id="Path_231" data-name="Path 231" d="M341.71,1184.249s-5.8-3.822-2.344-6.159" transform="translate(-325.626 -1155.823)" fill="none" stroke="#ffb000" stroke-linecap="round" stroke-miterlimit="10" stroke-width="5"/>
              </g>
            </g>
            <g id="HEAD-3" data-name="HEAD" transform="translate(70.061)">
              <path id="HOOD" d="M621.38,175.773s21.827-7.392,23.371-29.342C645.014,142.714,621.38,175.773,621.38,175.773Z" transform="translate(-575.786 -99.357)" fill="#6562cf"/>
              <g id="NECK-2" data-name="NECK" transform="translate(27.734 33.513)">
                <path id="Path_232" data-name="Path 232" d="M570.933,104.69s9.421,24.21,18.089,33.247c0,0-13.838,11.31-25.455,11.3,0,0-7.605-16.46-10.757-22.757Z" transform="translate(-552.81 -104.69)" fill="#ffcfc9"/>
                <path id="Path_233" data-name="Path 233" d="M559.934,152.516c-2.4-5.144-5.418-11.524-7.124-14.943L566.6,121l.945,2.314C568.55,134.41,566.031,146.517,559.934,152.516Z" transform="translate(-552.81 -115.779)" fill="#ffc0b7"/>
              </g>
              <path id="HEAD-4" data-name="HEAD" d="M518.3,70.275s-.042,9.283-2.915,14.421c-3.615,6.47-12.817,13.445-19.821,12.164S482.451,51.984,487.7,49.4s19.93-4.949,24.306,3.006S518.3,70.275,518.3,70.275Z" transform="translate(-475.465 -31.922)" fill="#ffcfc9"/>
              <g id="HAIR-2" data-name="HAIR">
                <path id="Path_234" data-name="Path 234" d="M499.013,43.734s-3.05.6-7.483-1.9c.138-2.036.2-6.217-1.513-7.42-1.87-1.312-2.938,2.391-3.269,3.793q-.6-.57-1.211-1.226c-7.293-7.788-5.394-15.414-5.394-15.414s-10.851,7.843-21.189,7.324c-8.58-.429-12.781-15.186-5.548-19.585,0,0-.521,4.043,5.793,2.106S464.286,1.6,473.134.214C484.036-1.48,486.289,7.4,486.289,7.4s5.222-3.377,10.6,2.766C502.615,16.71,495.215,34.982,499.013,43.734Z" transform="translate(-448.83 0.001)" fill="#ffb000"/>
                <path id="Path_235" data-name="Path 235" d="M478.758,43.7s-10.142,9.943-21.165,11.707c-10.369,1.658-14.911-14.8-7.866-20.766" transform="translate(-446.33 -23.551)" fill="none" stroke="#ffb000" stroke-miterlimit="10" stroke-width="4"/>
                <path id="Path_236" data-name="Path 236" d="M586.55,17.312a7.351,7.351,0,0,1,10.257-2.561" transform="translate(-550.028 -9.251)" fill="none" stroke="#ffb000" stroke-miterlimit="10" stroke-width="4"/>
              </g>
            </g>
            <g id="HOODY" transform="translate(42.009 46.485)">
              <path id="Path_237" data-name="Path 237" d="M441.3,400.018c8.126-9.783,18.477-71.479,15.773-111.033a81.824,81.824,0,0,0-1.6-13.346h0a61.987,61.987,0,0,0-1.847-7.561,40.839,40.839,0,0,0-15.159-20.292c-7.6-6.687-17.511-11.313-30.648-8.611-19.555,4.021-24.1,28.014-25.147,38.936l-.016-.019-5.306,36.66-38.715,1.8v15.564S370.4,355.928,392.9,349.027l.2-.064a68.751,68.751,0,0,1-23,18.119S407.595,395.674,441.3,400.018Z" transform="translate(-338.63 -208.562)" fill="#3f4d79"/>
              <path id="Path_238" data-name="Path 238" d="M559.824,427.36s-7.413,45.889-21.194,51.744" transform="translate(-486.538 -337.039)" fill="none" stroke="#fff" stroke-linecap="round" stroke-miterlimit="10" stroke-width="5"/>
              <path id="Path_239" data-name="Path 239" d="M621.38,175.141c6.04-.96,22.045-13.467,23.358-29.931,0,0,24.064,29.931,15.25,53.847,0,0-4.907-11.2-15.518-18.013C631.77,172.9,621.38,175.141,621.38,175.141Z" transform="translate(-547.735 -145.21)" fill="#3f4d79"/>
              <path id="Path_240" data-name="Path 240" d="M635.892,262.972s-7.293-11.915-17.646-19.309c-14.495-10.356-32.326-4.93-32.326-4.93" transform="translate(-521.511 -207.828)" fill="none" stroke="#fff" stroke-linecap="round" stroke-miterlimit="10" stroke-width="5"/>
            </g>
            <g id="ARM" transform="translate(7.839 154.572)">
              <path id="Path_241" data-name="Path 241" d="M241.735,492.79s-3.847,7.475-7.941,6.4-7.9-1.809-9.981-.5c-2.566,1.623-5.113,5.205-6.788,5.138a13.393,13.393,0,0,1-5.886-1.6q1.581-3.959,3.48-7.708c-1.419,1.1-3.3,3.371-4.344,4.229-1.667,1.377-2.834-.583-2.834-.583a54.64,54.64,0,0,1,4.141-6.338c1.211-1.258,5.582-5.16,7.488-5.506a179,179,0,0,1,22.691-3.467Z" transform="translate(-207.44 -482.86)" fill="#ffcfc9"/>
              <path id="Path_242" data-name="Path 242" d="M229.8,517.1s5.108-9.194,6.527-9.84c2.5-1.136,5.761-2.638,5.761-2.638" transform="translate(-223.976 -497.654)" fill="none" stroke="#f7b3af" stroke-linecap="round" stroke-miterlimit="10" stroke-width="4"/>
              <path id="Path_243" data-name="Path 243" d="M239.35,522.914s4.615-7.683,6.032-8.323c2.5-1.136,5.764-2.641,5.764-2.641" transform="translate(-231.039 -502.638)" fill="none" stroke="#f7b3af" stroke-linecap="round" stroke-miterlimit="10" stroke-width="4"/>
            </g>
          </g>
        </g>
      </g>
    </g>
  </g>
</svg>
